<svg xmlns="http://www.w3.org/2000/svg" viewBox="0 0 200 200">
    <!-- Ball shading -->
    <defs>
        <radialGradient id="ballGradient" cx="30%" cy="30%" r="70%">
            <stop offset="0%" stop-color="#fff176"/>
            <stop offset="70%" stop-color="#fdd835"/>
            <stop offset="100%" stop-color="#fbc02d"/>
        </radialGradient>
        <radialGradient id="holeGradient" cx="50%" cy="50%" r="50%">
            <stop offset="0%" stop-color="#444"/>
            <stop offset="100%" stop-color="#000"/>
        </radialGradient>
    </defs>

    <!-- Base ball -->
    <circle cx="100" cy="100" r="90" fill="url(#ballGradient)" stroke="#e0b000" stroke-width="2"/>

    <!-- Highlight -->
    <ellipse cx="65" cy="60" rx="35" ry="22" fill="white" opacity="0.25"/>

    <!-- Holes (arranged like a real pickleball) -->
    <!-- Top row -->
    <circle cx="60" cy="40" r="8" fill="url(#holeGradient)"/>
    <circle cx="100" cy="35" r="8" fill="url(#holeGradient)"/>
    <circle cx="140" cy="40" r="8" fill="url(#holeGradient)"/>

    <!-- Upper middle row -->
    <circle cx="45" cy="75" r="8" fill="url(#holeGradient)"/>
    <circle cx="85" cy="70" r="8" fill="url(#holeGradient)"/>
    <circle cx="115" cy="70" r="8" fill="url(#holeGradient)"/>
    <circle cx="155" cy="75" r="8" fill="url(#holeGradient)"/>

    <!-- Center row -->
    <circle cx="60" cy="100" r="8" fill="url(#holeGradient)"/>
    <circle cx="100" cy="100" r="8" fill="url(#holeGradient)"/>
    <circle cx="140" cy="100" r="8" fill="url(#holeGradient)"/>

    <!-- Lower middle row -->
    <circle cx="45" cy="125" r="8" fill="url(#holeGradient)"/>
    <circle cx="85" cy="130" r="8" fill="url(#holeGradient)"/>
    <circle cx="115" cy="130" r="8" fill="url(#holeGradient)"/>
    <circle cx="155" cy="125" r="8" fill="url(#holeGradient)"/>

    <!-- Bottom row -->
    <circle cx="60" cy="160" r="8" fill="url(#holeGradient)"/>
    <circle cx="100" cy="165" r="8" fill="url(#holeGradient)"/>
    <circle cx="140" cy="160" r="8" fill="url(#holeGradient)"/>
</svg>
